<svg width="303" height="426" viewBox="0 0 303 426" fill="none" xmlns="http://www.w3.org/2000/svg">
<path d="M118.515 69.1602C119.195 75.8802 119.529 84.6702 119.515 95.5302C119.442 149.49 119.422 203.557 119.455 257.73C119.455 258.524 119.472 259.32 119.505 260.12C119.532 260.594 119.742 260.957 120.135 261.21L123.605 263.39C124.085 263.69 124.325 263.56 124.325 263L124.355 78.2702C124.355 77.9435 124.519 77.7602 124.845 77.7202L126.335 77.5102C126.619 77.4703 126.881 77.3356 127.077 77.1284C127.274 76.9211 127.393 76.6537 127.415 76.3702C128.235 66.2702 127.565 56.1002 127.615 45.9702C127.695 30.8369 127.815 16.1068 127.975 1.78018C127.982 1.32685 127.755 1.09685 127.295 1.09018L123.065 1.06018C122.632 1.05351 122.409 1.26685 122.395 1.70018C122.229 9.12685 122.305 16.4935 122.625 23.8002C122.852 29.1402 122.889 40.1035 122.735 56.6902C122.729 57.3435 122.399 57.6802 121.745 57.7002L121.285 57.7202C121.096 57.7255 120.907 57.6925 120.73 57.623C120.553 57.5536 120.392 57.4491 120.256 57.3158C120.119 57.1824 120.011 57.023 119.937 56.8468C119.863 56.6707 119.825 56.4814 119.825 56.2902L120.185 1.76018C120.187 1.66871 120.17 1.57791 120.137 1.49303C120.103 1.40814 120.053 1.33088 119.99 1.26575C119.927 1.20061 119.851 1.14889 119.768 1.1136C119.685 1.07831 119.596 1.06015 119.505 1.06018H115.535C114.962 1.06018 114.672 1.35017 114.665 1.93017C114.645 7.68351 114.692 13.8902 114.805 20.5502C114.819 21.2369 114.839 21.9102 114.865 22.5702C115.372 33.8368 115.475 45.2035 115.175 56.6702C115.162 57.4168 114.785 57.7302 114.045 57.6102C113.952 57.5969 113.859 57.5902 113.765 57.5902C112.772 57.6302 112.279 57.1535 112.285 56.1602L112.595 1.59018C112.596 1.49596 112.561 1.4049 112.499 1.33469C112.436 1.26447 112.349 1.22009 112.255 1.21017C110.929 1.07017 109.625 1.15351 108.345 1.46017C107.305 1.71351 106.235 1.84351 105.135 1.85017C96.2954 1.85017 87.3588 1.84685 78.3254 1.84018C75.6854 1.83018 72.8255 3.34017 72.4055 6.10017C71.9655 9.00684 73.1655 10.4868 76.0055 10.5402C78.6055 10.5935 81.5621 10.5902 84.8755 10.5302C86.7621 10.4968 86.9321 11.0235 85.3854 12.1102C81.5054 14.8402 84.2654 19.7702 87.5454 21.2902C88.7921 21.8702 90.1755 22.1768 91.6955 22.2102C96.7555 22.3035 101.812 22.2635 106.865 22.0902C106.958 22.0875 107.051 22.1033 107.137 22.1367C107.224 22.17 107.303 22.2203 107.37 22.2845C107.437 22.3487 107.49 22.4256 107.527 22.5107C107.564 22.5958 107.584 22.6874 107.585 22.7802L107.655 57.0302C107.657 57.073 107.65 57.1157 107.634 57.1557C107.619 57.1957 107.595 57.2322 107.565 57.263C107.535 57.2937 107.5 57.3182 107.46 57.3349C107.421 57.3516 107.378 57.3602 107.335 57.3602L85.0655 57.4102C84.8909 57.4111 84.7195 57.3634 84.5705 57.2724C84.4215 57.1814 84.3008 57.0508 84.2219 56.895C84.143 56.7393 84.109 56.5647 84.1238 56.3907C84.1385 56.2168 84.2015 56.0504 84.3055 55.9102C88.0655 50.7202 92.4055 44.1302 93.3055 37.7702C94.6455 28.3102 85.1855 20.4402 76.7155 27.4502C68.5288 34.2368 62.3255 39.5602 58.1055 43.4202C26.5155 72.3902 6.45547 111.11 2.15547 153.87C-1.04453 185.697 2.40213 216.14 12.4955 245.2C26.3455 285.07 49.9655 318.7 80.0055 349.76C98.2255 368.6 118.335 385.65 135.905 405.46C141.485 411.767 146.482 418.234 150.895 424.86C150.924 424.904 150.963 424.94 151.008 424.966C151.054 424.991 151.106 425.005 151.158 425.006C151.21 425.007 151.262 424.995 151.309 424.971C151.355 424.948 151.395 424.913 151.425 424.87C162.879 408.724 176.062 393.744 190.975 379.93C201.962 369.757 212.055 359.987 221.255 350.62C246.745 324.65 269.075 294.72 283.415 261.69C293.882 237.564 299.729 212.674 300.955 187.02C301.822 168.994 300.592 152.124 297.265 136.41C289.585 100.084 271.805 69.0068 243.925 43.1802C237.239 36.9868 230.702 31.4202 224.315 26.4802C221.349 24.1868 218.139 24.1068 214.685 26.2402C210.452 28.8535 208.732 32.9168 209.525 38.4302C210.425 44.6402 214.365 50.3702 217.925 55.7602C218.028 55.9182 218.087 56.101 218.095 56.2892C218.103 56.4774 218.061 56.6641 217.974 56.8299C217.886 56.9956 217.755 57.1341 217.595 57.231C217.435 57.3278 217.252 57.3793 217.065 57.3802L195.915 57.5202C195.675 57.5202 195.555 57.4035 195.555 57.1702L195.565 2.05019C195.565 1.53685 195.309 1.27351 194.795 1.26018L191.525 1.18017C190.979 1.16684 190.705 1.43351 190.705 1.98018C190.865 25.7535 190.842 49.1335 190.635 72.1202C190.615 73.6135 190.695 75.1202 190.875 76.6402C190.922 77.0468 191.145 77.2769 191.545 77.3302L192.095 77.4002C192.502 77.4535 192.705 77.6868 192.705 78.1002L192.775 255.05C192.775 255.877 193.085 256.014 193.705 255.46L196.715 252.79C197.295 252.277 197.585 251.634 197.585 250.86L197.575 78.0602C197.575 77.9302 197.627 77.8056 197.719 77.7137C197.811 77.6218 197.936 77.5702 198.065 77.5702C202.652 77.5168 207.409 77.5235 212.335 77.5902C216.375 77.6502 219.835 76.0202 220.065 71.4702C220.172 69.3969 219.305 67.8802 217.465 66.9202C215.805 66.0468 215.905 65.5069 217.765 65.3002C220.252 65.0202 222.829 64.9235 225.495 65.0102C226.405 65.0502 227.035 65.6102 227.615 66.2502C251.382 92.4435 263.492 123.557 263.945 159.59C264.455 199.67 249.985 237.01 219.975 263.32C205.515 276 189.649 284.08 172.375 287.56C140.045 294.07 108.375 285.2 83.4154 263.41C48.3054 232.75 34.4955 186.57 40.3955 140.33C43.9888 112.204 55.5188 87.4935 74.9855 66.2002C75.6321 65.4935 76.4521 65.1202 77.4455 65.0802C80.1921 64.9802 82.9221 65.0035 85.6354 65.1502C86.1488 65.1768 86.5088 65.4002 86.7155 65.8202C86.8755 66.1468 86.7921 66.3968 86.4655 66.5702C80.0755 69.9002 83.2555 77.2902 89.7255 77.4102C95.9121 77.5302 102.152 77.5168 108.445 77.3702C108.535 77.3675 108.624 77.3831 108.708 77.4161C108.792 77.449 108.868 77.4987 108.932 77.5621C108.996 77.6255 109.048 77.7014 109.083 77.7852C109.117 77.8691 109.135 77.9592 109.135 78.0502V251.2C109.135 251.677 109.238 252.149 109.436 252.583C109.635 253.018 109.924 253.406 110.285 253.72L112.765 255.87C113.519 256.517 113.895 256.344 113.895 255.35L113.865 78.3202C113.865 77.8668 114.092 77.6068 114.545 77.5402L116.495 77.2402C116.692 77.2089 116.873 77.1118 117.007 76.9646C117.142 76.8175 117.222 76.629 117.235 76.4302C117.429 73.8768 117.759 71.4502 118.225 69.1502C118.352 68.5302 118.449 68.5335 118.515 69.1602Z" stroke="#1E1E1E" stroke-width="2"/>
<path d="M139.035 69.1002C139.775 73.1002 140.172 76.5902 140.225 79.5702C140.412 89.7102 140.489 101.447 140.455 114.78C140.355 165.794 140.349 217.1 140.435 268.7C140.435 269.047 140.609 269.247 140.955 269.3L144.785 269.82C144.855 269.829 144.925 269.822 144.991 269.802C145.058 269.781 145.119 269.746 145.171 269.7C145.223 269.653 145.265 269.596 145.293 269.533C145.322 269.469 145.336 269.4 145.335 269.33L145.365 78.2802C145.365 77.9402 145.535 77.7469 145.875 77.7002L146.945 77.5402C147.759 77.4269 148.215 76.9635 148.315 76.1502C149.085 70.1102 148.995 64.4402 149.485 58.4702C149.495 58.3375 149.531 58.2088 149.591 58.0919C149.651 57.9749 149.735 57.8723 149.835 57.7902C150.095 57.5768 150.225 57.3268 150.225 57.0402C150.139 44.9602 150.195 34.0502 150.395 24.3102C150.562 16.1035 150.602 8.50352 150.515 1.51018C150.515 1.16352 150.342 0.993522 149.995 1.00019L145.535 1.06019C145.195 1.06019 145.025 1.23352 145.025 1.58019L145.355 56.8102C145.362 57.3369 145.099 57.5935 144.565 57.5802L143.215 57.5502C142.669 57.5369 142.399 57.2602 142.405 56.7202L142.955 1.89019C142.955 1.33685 142.682 1.06019 142.135 1.06019H138.295C137.782 1.06019 137.529 1.31351 137.535 1.82018L137.845 56.2702C137.845 56.4583 137.808 56.6446 137.735 56.8178C137.662 56.991 137.555 57.1476 137.421 57.2782C137.286 57.4089 137.127 57.511 136.953 57.5783C136.778 57.6457 136.592 57.6769 136.405 57.6702C136.299 57.6635 136.195 57.6668 136.095 57.6802C135.442 57.7468 135.112 57.4535 135.105 56.8002C134.985 40.4669 135.009 29.3569 135.175 23.4702C135.402 15.6502 135.465 8.35018 135.365 1.57018C135.365 1.20351 135.179 1.02019 134.805 1.02019L130.545 1.07018C130.119 1.07018 129.909 1.28351 129.915 1.71018C130.155 19.9702 130.265 37.1068 130.245 53.1202C130.245 54.3535 130.115 55.5935 129.855 56.8402C129.542 58.3935 129.395 59.7202 129.415 60.8202C129.615 72.6702 129.965 84.4302 129.945 95.8102C129.839 152.397 129.812 209.12 129.865 265.98C129.865 266.147 129.942 266.25 130.095 266.29L134.515 267.56C134.649 267.6 134.719 267.55 134.725 267.41C134.932 248.497 135.012 229.967 134.965 211.82C134.859 167.28 134.832 122.757 134.885 78.2502C134.885 77.8902 135.065 77.6835 135.425 77.6302L136.735 77.4202C137.609 77.2802 138.082 76.7702 138.155 75.8902L138.745 69.1102C138.805 68.3969 138.902 68.3935 139.035 69.1002Z" stroke="#1E1E1E" stroke-width="2"/>
<path d="M156.335 77.6402C158.135 77.8202 159.059 77.0402 159.105 75.3002C159.245 69.6202 159.432 63.9702 159.665 58.3502C159.685 57.9035 159.472 57.7102 159.025 57.7702C158.699 57.8102 158.409 57.7202 158.155 57.5002C157.882 57.2602 157.742 56.9568 157.735 56.5902C157.549 44.2035 157.592 33.3802 157.865 24.1202C158.092 16.6335 158.135 9.03018 157.995 1.31018C157.995 1.17685 157.929 1.10684 157.795 1.10017C156.162 0.980172 154.525 1.00351 152.885 1.17018C152.712 1.19018 152.629 1.28684 152.635 1.46017L153.035 56.4002C153.042 57.1268 152.692 57.5702 151.985 57.7302C151.659 57.8035 151.329 57.7768 150.995 57.6502C150.522 57.4635 150.292 57.6268 150.305 58.1402C150.899 74.2935 151.172 93.1802 151.125 114.8C151.012 166.367 150.975 217.917 151.015 269.45C151.015 269.984 151.279 270.244 151.805 270.23L155.075 270.17C155.655 270.157 155.945 269.864 155.945 269.29L155.925 78.0102C155.925 77.958 155.936 77.9064 155.957 77.8587C155.978 77.811 156.009 77.7683 156.047 77.7333C156.086 77.6984 156.132 77.672 156.181 77.656C156.231 77.6399 156.283 77.6345 156.335 77.6402Z" stroke="#1E1E1E" stroke-width="2"/>
<path d="M170.745 63.5702C171.165 71.8502 171.935 79.9102 171.935 88.2302C171.935 122.19 171.919 158.717 171.885 197.81C171.872 219.124 171.839 241.887 171.785 266.1C171.785 266.954 172.189 267.24 172.995 266.96L175.845 265.96C176.485 265.734 176.805 265.28 176.805 264.6L176.745 78.2802C176.746 78.1846 176.767 78.0902 176.807 78.0032C176.846 77.9162 176.904 77.8386 176.976 77.7754C177.047 77.7122 177.132 77.6648 177.223 77.6363C177.314 77.6078 177.41 77.5989 177.505 77.6102C178.992 77.8035 179.789 77.1269 179.895 75.5802C180.262 70.0335 180.439 64.5568 180.425 59.1502C180.425 58.9702 180.519 58.8768 180.705 58.8702L180.955 58.8602C180.995 58.8602 181.015 58.8802 181.015 58.9202C181.209 63.3868 181.469 67.8635 181.795 72.3502C182.135 77.0502 182.309 81.5302 182.315 85.7902C182.349 146.644 182.345 205.48 182.305 262.3C182.306 262.377 182.327 262.453 182.366 262.52C182.404 262.586 182.459 262.642 182.525 262.68C182.591 262.719 182.665 262.739 182.741 262.739C182.816 262.739 182.89 262.719 182.955 262.68L186.595 260.51C186.73 260.431 186.841 260.319 186.92 260.186C186.999 260.053 187.042 259.903 187.045 259.75C187.145 255.35 187.195 251.004 187.195 246.71C187.229 193.29 187.209 139.167 187.135 84.3402C187.129 82.3202 187.162 80.2568 187.235 78.1502C187.249 77.8035 187.415 77.5669 187.735 77.4402C188.382 77.1735 188.709 76.5468 188.715 75.5602C188.775 69.7002 188.779 64.2835 188.725 59.3102C188.715 57.7002 188.245 56.0102 188.215 54.2302C187.895 34.7502 188.695 19.0902 188.575 1.78018C188.575 1.39352 188.382 1.19351 187.995 1.18018L183.585 1.04018C183.519 1.03748 183.454 1.04816 183.392 1.07158C183.33 1.09499 183.274 1.13067 183.226 1.17644C183.178 1.22221 183.14 1.27713 183.115 1.33792C183.089 1.39871 183.075 1.46412 183.075 1.53018L183.235 56.5402C183.242 57.3268 182.855 57.7535 182.075 57.8202L181.485 57.8802C180.892 57.9335 180.595 57.6602 180.595 57.0602C180.482 43.8002 180.512 32.8535 180.685 24.2202C180.879 14.8735 180.935 7.33018 180.855 1.59018C180.853 1.44605 180.794 1.30871 180.691 1.20772C180.588 1.10673 180.45 1.05016 180.305 1.05019L175.825 1.04018C175.485 1.04018 175.319 1.20684 175.325 1.54018L175.645 56.6302C175.645 57.2435 175.342 57.5802 174.735 57.6402L173.505 57.7602C172.945 57.8135 172.669 57.5635 172.675 57.0102L173.075 1.56018C173.082 1.21351 172.909 1.04018 172.555 1.04018L168.325 1.06018C168.153 1.06018 167.988 1.12867 167.866 1.25056C167.744 1.37246 167.675 1.53778 167.675 1.71017C167.742 19.7768 167.865 37.1468 168.045 53.8202C168.059 54.8468 167.999 55.7902 167.865 56.6502C167.818 56.9543 167.654 57.2277 167.407 57.4111C167.159 57.5945 166.85 57.6732 166.545 57.6302L166.105 57.5702C165.812 57.5289 165.544 57.3835 165.351 57.1609C165.158 56.9383 165.053 56.6537 165.055 56.3602L165.605 1.57018C165.607 1.49842 165.594 1.42713 165.567 1.36046C165.541 1.29378 165.501 1.23308 165.451 1.18187C165.401 1.13066 165.341 1.08999 165.274 1.06223C165.208 1.03446 165.137 1.02018 165.065 1.02019L160.785 1.06018C160.345 1.06685 160.129 1.29018 160.135 1.73018C160.295 16.2302 160.372 31.2568 160.365 46.8102C160.359 52.5702 160.515 59.2335 160.835 66.8002C161.255 76.7335 161.469 86.6902 161.475 96.6702C161.535 156.837 161.515 214.17 161.415 268.67C161.409 269.27 161.705 269.527 162.305 269.44L165.495 268.95C165.752 268.912 165.985 268.783 166.154 268.586C166.323 268.39 166.416 268.139 166.415 267.88L166.305 78.5902C166.305 78.0035 166.599 77.7035 167.185 77.6902C168.872 77.6502 169.675 76.8602 169.595 75.3202C169.475 73.1668 169.799 69.2468 170.565 63.5602C170.652 62.9068 170.712 62.9102 170.745 63.5702Z" stroke="#1E1E1E" stroke-width="2"/>
<path d="M217.035 11.7102C215.849 10.8768 215.979 10.4868 217.425 10.5402C220.792 10.6735 223.969 10.6402 226.955 10.4402C229.789 10.2469 230.829 8.78018 230.075 6.04018C230.055 5.96018 230.042 5.90352 230.035 5.87018C229.282 3.13018 227.482 1.76685 224.635 1.78019C215.475 1.82685 206.299 1.86019 197.105 1.88019C196.785 1.88019 196.625 2.04019 196.625 2.36019L196.545 21.6002C196.545 21.9002 196.695 22.0535 196.995 22.0602C202.082 22.1202 207.095 22.1135 212.035 22.0402C216.895 21.9702 222.885 15.8102 217.035 11.7102Z" stroke="#1E1E1E" stroke-width="2"/>
<path d="M150.875 369.01C130.615 354.71 111.679 341.067 94.0654 328.08C86.6587 322.614 79.0787 316.444 71.3254 309.57C49.532 290.217 32.6154 267.717 20.5754 242.07C20.5554 242.037 20.5287 242.03 20.4954 242.05L20.2654 242.15C20.1854 242.19 20.162 242.25 20.1954 242.33C30.0487 265.864 43.9887 286.857 62.0154 305.31C72.3487 315.89 83.4187 325.75 95.2254 334.89C114.019 349.45 132.582 363.724 150.915 377.71C151.195 377.924 151.472 377.924 151.745 377.71C164.885 367.424 178.555 356.864 192.755 346.03C216.095 328.23 238.175 309.9 256.385 286.98C267.605 272.847 276.562 257.087 283.255 239.7C283.258 239.694 283.259 239.687 283.259 239.68C283.259 239.672 283.258 239.665 283.255 239.659C283.252 239.652 283.248 239.647 283.243 239.642C283.238 239.637 283.232 239.633 283.225 239.63C283.219 239.628 283.212 239.626 283.205 239.626C283.198 239.626 283.191 239.628 283.184 239.631C283.178 239.633 283.172 239.638 283.167 239.643C283.162 239.648 283.158 239.654 283.155 239.66C281.722 242.54 280.309 245.467 278.915 248.44C263.165 281.98 234.075 309.47 204.165 331.22C187.219 343.54 169.792 356.134 151.885 369C151.545 369.24 151.209 369.244 150.875 369.01Z" stroke="#1E1E1E" stroke-width="2"/>
<path d="M116.266 320.15C116.239 320.197 116.249 320.237 116.296 320.27L151.076 343C151.276 343.134 151.476 343.13 151.676 342.99C162.549 335.397 173.809 327.947 185.456 320.64C185.556 320.574 185.579 320.487 185.526 320.38H185.516C185.449 320.254 185.349 320.22 185.216 320.28C174.202 325.247 163.476 330.477 153.036 335.97C152.376 336.317 151.719 336.56 151.066 336.7C150.739 336.767 150.432 336.714 150.146 336.54C148.566 335.56 147.039 334.717 145.566 334.01C135.819 329.35 126.129 324.634 116.496 319.86C116.462 319.847 116.436 319.857 116.416 319.89L116.266 320.15Z" stroke="#1E1E1E" stroke-width="2"/>
<path d="M118.225 69.1502C117.759 71.4502 117.429 73.8768 117.235 76.4302C117.222 76.629 117.142 76.8175 117.007 76.9646C116.873 77.1118 116.692 77.2089 116.495 77.2402L114.545 77.5402C114.092 77.6068 113.865 77.8668 113.865 78.3202L113.895 255.35C113.895 256.344 113.519 256.517 112.765 255.87L110.285 253.72C109.924 253.406 109.635 253.018 109.436 252.583C109.238 252.149 109.135 251.677 109.135 251.2V78.0502C109.135 77.9592 109.117 77.8691 109.083 77.7852C109.048 77.7014 108.996 77.6255 108.932 77.5621C108.868 77.4987 108.792 77.449 108.708 77.4161C108.624 77.3831 108.535 77.3675 108.445 77.3702C102.152 77.5168 95.9121 77.5302 89.7255 77.4102C83.2555 77.2902 80.0755 69.9002 86.4655 66.5702C86.7921 66.3968 86.8755 66.1468 86.7155 65.8202C86.5088 65.4002 86.1488 65.1768 85.6354 65.1502C82.9221 65.0035 80.1921 64.9802 77.4455 65.0802C76.4521 65.1202 75.6321 65.4935 74.9855 66.2002C55.5188 87.4935 43.9888 112.204 40.3955 140.33C34.4955 186.57 48.3054 232.75 83.4154 263.41C108.375 285.2 140.045 294.07 172.375 287.56C189.649 284.08 205.515 276 219.975 263.32C249.985 237.01 264.455 199.67 263.945 159.59C263.492 123.557 251.382 92.4435 227.615 66.2502C227.035 65.6102 226.405 65.0502 225.495 65.0102C222.829 64.9235 220.252 65.0202 217.765 65.3002C215.905 65.5069 215.805 66.0468 217.465 66.9202C219.305 67.8802 220.172 69.3969 220.065 71.4702C219.835 76.0202 216.375 77.6502 212.335 77.5902C207.409 77.5235 202.652 77.5168 198.065 77.5702C197.936 77.5702 197.811 77.6218 197.719 77.7137C197.627 77.8056 197.575 77.9302 197.575 78.0602L197.585 250.86C197.585 251.634 197.295 252.277 196.715 252.79L193.705 255.46C193.085 256.014 192.775 255.877 192.775 255.05L192.705 78.1002C192.705 77.6868 192.502 77.4535 192.095 77.4002L191.545 77.3302C191.145 77.2769 190.922 77.0468 190.875 76.6402C190.695 75.1202 190.615 73.6135 190.635 72.1202C190.842 49.1335 190.865 25.7535 190.705 1.98018C190.705 1.43351 190.979 1.16684 191.525 1.18017L194.795 1.26018C195.309 1.27351 195.565 1.53685 195.565 2.05019L195.555 57.1702C195.555 57.4035 195.675 57.5202 195.915 57.5202L217.065 57.3802C217.252 57.3793 217.435 57.3278 217.595 57.231C217.755 57.1341 217.886 56.9956 217.974 56.8299C218.061 56.6641 218.103 56.4774 218.095 56.2892C218.087 56.101 218.028 55.9182 217.925 55.7602C214.365 50.3702 210.425 44.6402 209.525 38.4302C208.732 32.9168 210.452 28.8535 214.685 26.2402C218.139 24.1068 221.349 24.1868 224.315 26.4802C230.702 31.4202 237.239 36.9868 243.925 43.1802C271.805 69.0068 289.585 100.084 297.265 136.41C300.592 152.124 301.822 168.994 300.955 187.02C299.729 212.674 293.882 237.564 283.415 261.69C269.075 294.72 246.745 324.65 221.255 350.62C212.055 359.987 201.962 369.757 190.975 379.93C176.062 393.744 162.879 408.724 151.425 424.87C151.395 424.913 151.355 424.948 151.309 424.971C151.262 424.995 151.21 425.007 151.158 425.006C151.106 425.005 151.054 424.991 151.008 424.966C150.963 424.94 150.924 424.904 150.895 424.86C146.482 418.234 141.485 411.767 135.905 405.46C118.335 385.65 98.2255 368.6 80.0055 349.76C49.9655 318.7 26.3455 285.07 12.4955 245.2C2.40213 216.14 -1.04453 185.697 2.15547 153.87C6.45547 111.11 26.5155 72.3902 58.1055 43.4202C62.3255 39.5602 68.5288 34.2368 76.7155 27.4502C85.1855 20.4402 94.6455 28.3102 93.3055 37.7702C92.4055 44.1302 88.0655 50.7202 84.3055 55.9102C84.2015 56.0504 84.1385 56.2168 84.1238 56.3907C84.109 56.5647 84.143 56.7393 84.2219 56.895C84.3008 57.0508 84.4215 57.1814 84.5705 57.2724C84.7195 57.3634 84.8909 57.4111 85.0655 57.4102L107.335 57.3602C107.378 57.3602 107.421 57.3516 107.46 57.3349C107.5 57.3182 107.535 57.2937 107.565 57.263C107.595 57.2322 107.619 57.1957 107.634 57.1557C107.65 57.1157 107.657 57.073 107.655 57.0302L107.585 22.7802C107.584 22.6874 107.564 22.5958 107.527 22.5107C107.49 22.4256 107.437 22.3487 107.37 22.2845C107.303 22.2203 107.224 22.17 107.137 22.1367C107.051 22.1033 106.958 22.0875 106.865 22.0902C101.812 22.2635 96.7555 22.3035 91.6955 22.2102C90.1755 22.1768 88.7921 21.8702 87.5454 21.2902C84.2654 19.7702 81.5054 14.8402 85.3854 12.1102C86.9321 11.0235 86.7621 10.4968 84.8755 10.5302C81.5621 10.5902 78.6055 10.5935 76.0055 10.5402C73.1655 10.4868 71.9655 9.00684 72.4055 6.10017C72.8255 3.34017 75.6854 1.83018 78.3254 1.84018C87.3588 1.84685 96.2954 1.85017 105.135 1.85017C106.235 1.84351 107.305 1.71351 108.345 1.46017C109.625 1.15351 110.929 1.07017 112.255 1.21017C112.349 1.22009 112.436 1.26447 112.499 1.33469C112.561 1.4049 112.596 1.49596 112.595 1.59018L112.285 56.1602C112.279 57.1535 112.772 57.6302 113.765 57.5902C113.859 57.5902 113.952 57.5969 114.045 57.6102C114.785 57.7302 115.162 57.4168 115.175 56.6702C115.475 45.2035 115.372 33.8368 114.865 22.5702C114.839 21.9102 114.819 21.2369 114.805 20.5502C114.692 13.8902 114.645 7.68351 114.665 1.93017C114.672 1.35017 114.962 1.06018 115.535 1.06018H119.505C119.596 1.06015 119.685 1.07831 119.768 1.1136C119.851 1.14889 119.927 1.20061 119.99 1.26575C120.053 1.33088 120.103 1.40814 120.137 1.49303C120.17 1.57791 120.187 1.66871 120.185 1.76018L119.825 56.2902C119.825 56.4814 119.863 56.6707 119.937 56.8468C120.011 57.023 120.119 57.1824 120.256 57.3158C120.392 57.4491 120.553 57.5536 120.73 57.623C120.907 57.6925 121.096 57.7255 121.285 57.7202L121.745 57.7002C122.399 57.6802 122.729 57.3435 122.735 56.6902C122.889 40.1035 122.852 29.1402 122.625 23.8002C122.305 16.4935 122.229 9.12685 122.395 1.70018C122.409 1.26685 122.632 1.05351 123.065 1.06018L127.295 1.09018C127.755 1.09685 127.982 1.32685 127.975 1.78018C127.815 16.1068 127.695 30.8369 127.615 45.9702C127.565 56.1002 128.235 66.2702 127.415 76.3702C127.393 76.6537 127.274 76.9211 127.077 77.1284C126.881 77.3356 126.619 77.4703 126.335 77.5102L124.845 77.7202C124.519 77.7602 124.355 77.9435 124.355 78.2702L124.325 263C124.325 263.56 124.085 263.69 123.605 263.39L120.135 261.21C119.742 260.957 119.532 260.594 119.505 260.12C119.472 259.32 119.455 258.524 119.455 257.73C119.422 203.557 119.442 149.49 119.515 95.5302C119.529 84.6702 119.195 75.8802 118.515 69.1602C118.449 68.5335 118.352 68.5302 118.225 69.1502ZM150.875 369.01C130.615 354.71 111.679 341.067 94.0655 328.08C86.6588 322.614 79.0788 316.444 71.3254 309.57C49.5321 290.217 32.6155 267.717 20.5755 242.07C20.5555 242.037 20.5288 242.03 20.4955 242.05L20.2655 242.15C20.1855 242.19 20.1621 242.25 20.1955 242.33C30.0488 265.864 43.9888 286.857 62.0155 305.31C72.3488 315.89 83.4188 325.75 95.2255 334.89C114.019 349.45 132.582 363.724 150.915 377.71C151.195 377.924 151.472 377.924 151.745 377.71C164.885 367.424 178.555 356.864 192.755 346.03C216.095 328.23 238.175 309.9 256.385 286.98C267.605 272.847 276.562 257.087 283.255 239.7C283.258 239.694 283.259 239.687 283.259 239.68C283.259 239.672 283.258 239.665 283.255 239.659C283.252 239.652 283.248 239.647 283.243 239.642C283.238 239.637 283.232 239.633 283.225 239.63C283.219 239.628 283.212 239.626 283.205 239.626C283.198 239.626 283.191 239.628 283.184 239.631C283.178 239.633 283.172 239.638 283.167 239.643C283.162 239.648 283.158 239.654 283.155 239.66C281.722 242.54 280.309 245.467 278.915 248.44C263.165 281.98 234.075 309.47 204.165 331.22C187.219 343.54 169.792 356.134 151.885 369C151.545 369.24 151.209 369.244 150.875 369.01ZM116.265 320.15C116.239 320.197 116.249 320.237 116.295 320.27L151.075 343C151.275 343.134 151.475 343.13 151.675 342.99C162.549 335.397 173.809 327.947 185.455 320.64C185.555 320.574 185.579 320.487 185.525 320.38H185.515C185.449 320.254 185.349 320.22 185.215 320.28C174.202 325.247 163.475 330.477 153.035 335.97C152.375 336.317 151.719 336.56 151.065 336.7C150.739 336.767 150.432 336.714 150.145 336.54C148.565 335.56 147.039 334.717 145.565 334.01C135.819 329.35 126.129 324.634 116.495 319.86C116.462 319.847 116.435 319.857 116.415 319.89L116.265 320.15Z" fill="#FFD700"/>
<path d="M138.745 69.1102L138.155 75.8902C138.082 76.7702 137.609 77.2802 136.735 77.4202L135.425 77.6302C135.065 77.6835 134.885 77.8902 134.885 78.2502C134.832 122.757 134.859 167.28 134.965 211.82C135.012 229.967 134.932 248.497 134.725 267.41C134.719 267.55 134.649 267.6 134.515 267.56L130.095 266.29C129.942 266.25 129.865 266.147 129.865 265.98C129.812 209.12 129.839 152.397 129.945 95.8102C129.965 84.4302 129.615 72.6702 129.415 60.8202C129.395 59.7202 129.542 58.3935 129.855 56.8402C130.115 55.5935 130.245 54.3535 130.245 53.1202C130.265 37.1068 130.155 19.9702 129.915 1.71018C129.909 1.28351 130.119 1.07018 130.545 1.07018L134.805 1.02019C135.179 1.02019 135.365 1.20351 135.365 1.57018C135.465 8.35018 135.402 15.6502 135.175 23.4702C135.009 29.3569 134.985 40.4669 135.105 56.8002C135.112 57.4535 135.442 57.7468 136.095 57.6802C136.195 57.6668 136.299 57.6635 136.405 57.6702C136.592 57.6769 136.778 57.6457 136.953 57.5783C137.127 57.511 137.286 57.4089 137.421 57.2782C137.555 57.1476 137.662 56.991 137.735 56.8178C137.808 56.6446 137.845 56.4583 137.845 56.2702L137.535 1.82018C137.529 1.31351 137.782 1.06019 138.295 1.06019H142.135C142.682 1.06019 142.955 1.33685 142.955 1.89019L142.405 56.7202C142.399 57.2602 142.669 57.5369 143.215 57.5502L144.565 57.5802C145.099 57.5935 145.362 57.3369 145.355 56.8102L145.025 1.58019C145.025 1.23352 145.195 1.06019 145.535 1.06019L149.995 1.00019C150.342 0.993522 150.515 1.16352 150.515 1.51018C150.602 8.50352 150.562 16.1035 150.395 24.3102C150.195 34.0502 150.139 44.9602 150.225 57.0402C150.225 57.3268 150.095 57.5768 149.835 57.7902C149.735 57.8723 149.651 57.9749 149.591 58.0919C149.531 58.2088 149.495 58.3375 149.485 58.4702C148.995 64.4402 149.085 70.1102 148.315 76.1502C148.215 76.9635 147.759 77.4269 146.945 77.5402L145.875 77.7002C145.535 77.7469 145.365 77.9402 145.365 78.2802L145.335 269.33C145.336 269.4 145.322 269.469 145.293 269.533C145.265 269.596 145.223 269.653 145.171 269.7C145.119 269.746 145.058 269.781 144.991 269.802C144.925 269.822 144.855 269.829 144.785 269.82L140.955 269.3C140.609 269.247 140.435 269.047 140.435 268.7C140.349 217.1 140.355 165.794 140.455 114.78C140.489 101.447 140.412 89.7102 140.225 79.5702C140.172 76.5902 139.775 73.1002 139.035 69.1002C138.902 68.3935 138.805 68.3969 138.745 69.1102Z" fill="#FFD700"/>
<path d="M156.335 77.6402C156.283 77.6345 156.231 77.6399 156.181 77.656C156.132 77.672 156.086 77.6984 156.047 77.7333C156.009 77.7683 155.978 77.811 155.957 77.8587C155.936 77.9064 155.925 77.958 155.925 78.0102L155.945 269.29C155.945 269.864 155.655 270.157 155.075 270.17L151.805 270.23C151.279 270.244 151.015 269.984 151.015 269.45C150.975 217.917 151.012 166.367 151.125 114.8C151.172 93.1802 150.899 74.2935 150.305 58.1402C150.292 57.6268 150.522 57.4635 150.995 57.6502C151.329 57.7768 151.659 57.8035 151.985 57.7302C152.692 57.5702 153.042 57.1268 153.035 56.4002L152.635 1.46017C152.629 1.28684 152.712 1.19018 152.885 1.17018C154.525 1.00351 156.162 0.980172 157.795 1.10017C157.929 1.10684 157.995 1.17685 157.995 1.31018C158.135 9.03018 158.092 16.6335 157.865 24.1202C157.592 33.3802 157.549 44.2035 157.735 56.5902C157.742 56.9568 157.882 57.2602 158.155 57.5002C158.409 57.7202 158.699 57.8102 159.025 57.7702C159.472 57.7102 159.685 57.9035 159.665 58.3502C159.432 63.9702 159.245 69.6202 159.105 75.3002C159.059 77.0402 158.135 77.8202 156.335 77.6402Z" fill="#FFD700"/>
<path d="M170.565 63.5602C169.799 69.2468 169.475 73.1668 169.595 75.3202C169.675 76.8602 168.872 77.6502 167.185 77.6902C166.599 77.7035 166.305 78.0035 166.305 78.5902L166.415 267.88C166.416 268.139 166.323 268.39 166.154 268.586C165.985 268.783 165.752 268.912 165.495 268.95L162.305 269.44C161.705 269.527 161.409 269.27 161.415 268.67C161.515 214.17 161.535 156.837 161.475 96.6702C161.469 86.6902 161.255 76.7335 160.835 66.8002C160.515 59.2335 160.359 52.5702 160.365 46.8102C160.372 31.2568 160.295 16.2302 160.135 1.73018C160.129 1.29018 160.345 1.06685 160.785 1.06018L165.065 1.02019C165.137 1.02018 165.208 1.03446 165.274 1.06223C165.341 1.08999 165.401 1.13066 165.451 1.18187C165.501 1.23308 165.541 1.29378 165.567 1.36046C165.594 1.42713 165.607 1.49842 165.605 1.57018L165.055 56.3602C165.053 56.6537 165.158 56.9383 165.351 57.1609C165.544 57.3835 165.812 57.5289 166.105 57.5702L166.545 57.6302C166.85 57.6732 167.159 57.5945 167.407 57.4111C167.654 57.2277 167.818 56.9543 167.865 56.6502C167.999 55.7902 168.059 54.8468 168.045 53.8202C167.865 37.1468 167.742 19.7768 167.675 1.71017C167.675 1.53778 167.744 1.37246 167.866 1.25056C167.988 1.12867 168.153 1.06018 168.325 1.06018L172.555 1.04018C172.909 1.04018 173.082 1.21351 173.075 1.56018L172.675 57.0102C172.669 57.5635 172.945 57.8135 173.505 57.7602L174.735 57.6402C175.342 57.5802 175.645 57.2435 175.645 56.6302L175.325 1.54018C175.319 1.20684 175.485 1.04018 175.825 1.04018L180.305 1.05019C180.45 1.05016 180.588 1.10673 180.691 1.20772C180.794 1.30871 180.853 1.44605 180.855 1.59018C180.935 7.33018 180.879 14.8735 180.685 24.2202C180.512 32.8535 180.482 43.8002 180.595 57.0602C180.595 57.6602 180.892 57.9335 181.485 57.8802L182.075 57.8202C182.855 57.7535 183.242 57.3268 183.235 56.5402L183.075 1.53018C183.075 1.46412 183.089 1.39871 183.115 1.33792C183.14 1.27713 183.178 1.22221 183.226 1.17644C183.274 1.13067 183.33 1.09499 183.392 1.07158C183.454 1.04816 183.519 1.03748 183.585 1.04018L187.995 1.18018C188.382 1.19351 188.575 1.39352 188.575 1.78018C188.695 19.0902 187.895 34.7502 188.215 54.2302C188.245 56.0102 188.715 57.7002 188.725 59.3102C188.779 64.2835 188.775 69.7002 188.715 75.5602C188.709 76.5468 188.382 77.1735 187.735 77.4402C187.415 77.5669 187.249 77.8035 187.235 78.1502C187.162 80.2568 187.129 82.3202 187.135 84.3402C187.209 139.167 187.229 193.29 187.195 246.71C187.195 251.004 187.145 255.35 187.045 259.75C187.042 259.903 186.999 260.053 186.92 260.186C186.841 260.319 186.73 260.431 186.595 260.51L182.955 262.68C182.89 262.719 182.816 262.739 182.741 262.739C182.665 262.739 182.591 262.719 182.525 262.68C182.459 262.642 182.404 262.586 182.366 262.52C182.327 262.453 182.306 262.377 182.305 262.3C182.345 205.48 182.349 146.644 182.315 85.7902C182.309 81.5302 182.135 77.0502 181.795 72.3502C181.469 67.8635 181.209 63.3868 181.015 58.9202C181.015 58.8802 180.995 58.8602 180.955 58.8602L180.705 58.8702C180.519 58.8768 180.425 58.9702 180.425 59.1502C180.439 64.5568 180.262 70.0335 179.895 75.5802C179.789 77.1269 178.992 77.8035 177.505 77.6102C177.41 77.5989 177.314 77.6078 177.223 77.6363C177.132 77.6648 177.047 77.7122 176.976 77.7754C176.904 77.8386 176.846 77.9162 176.807 78.0032C176.767 78.0902 176.746 78.1846 176.745 78.2802L176.805 264.6C176.805 265.28 176.485 265.734 175.845 265.96L172.995 266.96C172.189 267.24 171.785 266.954 171.785 266.1C171.839 241.887 171.872 219.124 171.885 197.81C171.919 158.717 171.935 122.19 171.935 88.2302C171.935 79.9102 171.165 71.8502 170.745 63.5702C170.712 62.9102 170.652 62.9068 170.565 63.5602Z" fill="#FFD700"/>
<path d="M217.035 11.7102C222.885 15.8102 216.895 21.9702 212.035 22.0402C207.095 22.1135 202.082 22.1202 196.995 22.0602C196.695 22.0535 196.545 21.9002 196.545 21.6002L196.625 2.36019C196.625 2.04019 196.785 1.88019 197.105 1.88019C206.299 1.86019 215.475 1.82685 224.635 1.78019C227.482 1.76685 229.282 3.13018 230.035 5.87018C230.042 5.90352 230.055 5.96018 230.075 6.04018C230.829 8.78018 229.789 10.2469 226.955 10.4402C223.969 10.6402 220.792 10.6735 217.425 10.5402C215.979 10.4868 215.849 10.8768 217.035 11.7102Z" fill="#FFD700"/>
<path d="M150.875 369.01C151.209 369.244 151.545 369.24 151.885 369C169.792 356.134 187.219 343.54 204.165 331.22C234.075 309.47 263.165 281.98 278.915 248.44C280.309 245.467 281.722 242.54 283.155 239.66C283.158 239.654 283.162 239.648 283.167 239.643C283.172 239.638 283.178 239.633 283.184 239.631C283.191 239.628 283.198 239.626 283.205 239.626C283.212 239.626 283.219 239.628 283.225 239.63C283.232 239.633 283.238 239.637 283.243 239.642C283.248 239.647 283.252 239.652 283.255 239.659C283.258 239.665 283.259 239.672 283.259 239.68C283.259 239.687 283.258 239.694 283.255 239.7C276.562 257.087 267.605 272.847 256.385 286.98C238.175 309.9 216.095 328.23 192.755 346.03C178.555 356.864 164.885 367.424 151.745 377.71C151.472 377.924 151.195 377.924 150.915 377.71C132.582 363.724 114.019 349.45 95.2254 334.89C83.4187 325.75 72.3487 315.89 62.0154 305.31C43.9887 286.857 30.0487 265.864 20.1954 242.33C20.162 242.25 20.1854 242.19 20.2654 242.15L20.4954 242.05C20.5287 242.03 20.5554 242.037 20.5754 242.07C32.6154 267.717 49.532 290.217 71.3254 309.57C79.0787 316.444 86.6587 322.614 94.0654 328.08C111.679 341.067 130.615 354.71 150.875 369.01Z" fill="#1E1E1E"/>
<path d="M116.496 319.86C126.129 324.634 135.819 329.35 145.566 334.01C147.039 334.717 148.566 335.56 150.146 336.54C150.432 336.714 150.739 336.767 151.066 336.7C151.719 336.56 152.376 336.317 153.036 335.97C163.476 330.477 174.202 325.247 185.216 320.28C185.349 320.22 185.449 320.254 185.516 320.38H185.526C185.579 320.487 185.556 320.574 185.456 320.64C173.809 327.947 162.549 335.397 151.676 342.99C151.476 343.13 151.276 343.134 151.076 343L116.296 320.27C116.249 320.237 116.239 320.197 116.266 320.15L116.416 319.89C116.436 319.857 116.462 319.847 116.496 319.86Z" fill="#1E1E1E"/>
</svg>
