<svg width="18" height="19" viewBox="0 0 18 19" fill="none" xmlns="http://www.w3.org/2000/svg">
<path fill-rule="evenodd" clip-rule="evenodd" d="M1.5 0.242676C0.67157 0.242676 0 0.914246 0 1.74268V16.7427C0 17.5711 0.67157 18.2427 1.5 18.2427H16.5C17.3284 18.2427 18 17.5711 18 16.7427V1.74268C18 0.914246 17.3284 0.242676 16.5 0.242676H1.5ZM5.52076 4.2454C5.52639 5.20165 4.81061 5.79087 3.96123 5.78665C3.16107 5.78243 2.46357 5.1454 2.46779 4.24681C2.47201 3.40165 3.13998 2.72243 4.00764 2.74212C4.88795 2.76181 5.52639 3.40728 5.52076 4.2454ZM9.2797 7.00444H6.75971H6.7583V15.5643H9.4217V15.3646C9.4217 14.9847 9.4214 14.6047 9.4211 14.2246C9.4203 13.2108 9.4194 12.1959 9.4246 11.1824C9.426 10.9363 9.4372 10.6804 9.5005 10.4455C9.7381 9.56798 10.5271 9.00128 11.4074 9.14058C11.9727 9.22908 12.3467 9.55678 12.5042 10.0898C12.6013 10.423 12.6449 10.7816 12.6491 11.129C12.6605 12.1766 12.6589 13.2242 12.6573 14.2719C12.6567 14.6417 12.6561 15.0117 12.6561 15.3815V15.5629H15.328V15.3576C15.328 14.9056 15.3278 14.4537 15.3275 14.0018C15.327 12.8723 15.3264 11.7428 15.3294 10.6129C15.3308 10.1024 15.276 9.59898 15.1508 9.10538C14.9638 8.37128 14.5771 7.76378 13.9485 7.32508C13.5027 7.01287 13.0133 6.81178 12.4663 6.78928C12.404 6.78669 12.3412 6.7833 12.2781 6.77989C11.9984 6.76477 11.7141 6.74941 11.4467 6.80334C10.6817 6.95662 10.0096 7.30678 9.5019 7.92408C9.4429 7.99488 9.3852 8.06678 9.2991 8.17408L9.2797 8.19838V7.00444ZM2.68164 15.5671H5.33242V7.01001H2.68164V15.5671Z" fill="#FFD700"/>
</svg>
