<svg width="18" height="19" viewBox="0 0 18 19" fill="none" xmlns="http://www.w3.org/2000/svg">
<path fill-rule="evenodd" clip-rule="evenodd" d="M13 0.242676H5C2.23858 0.242676 0 2.48126 0 5.24268V13.2427C0 16.0041 2.23858 18.2427 5 18.2427H13C15.7614 18.2427 18 16.0041 18 13.2427V5.24268C18 2.48126 15.7614 0.242676 13 0.242676ZM16.25 13.2427C16.2445 15.0353 14.7926 16.4872 13 16.4927H5C3.20735 16.4872 1.75549 15.0353 1.75 13.2427V5.24268C1.75549 3.45003 3.20735 1.99817 5 1.99268H13C14.7926 1.99817 16.2445 3.45003 16.25 5.24268V13.2427ZM13.75 5.49268C14.3023 5.49268 14.75 5.04496 14.75 4.49268C14.75 3.9404 14.3023 3.49268 13.75 3.49268C13.1977 3.49268 12.75 3.9404 12.75 4.49268C12.75 5.04496 13.1977 5.49268 13.75 5.49268ZM9 4.74268C6.51472 4.74268 4.5 6.7574 4.5 9.24268C4.5 11.728 6.51472 13.7427 9 13.7427C11.4853 13.7427 13.5 11.728 13.5 9.24268C13.5027 8.04838 13.0294 6.90225 12.1849 6.05776C11.3404 5.21327 10.1943 4.74002 9 4.74268ZM6.25 9.24268C6.25 10.7615 7.4812 11.9927 9 11.9927C10.5188 11.9927 11.75 10.7615 11.75 9.24268C11.75 7.72388 10.5188 6.49268 9 6.49268C7.4812 6.49268 6.25 7.72388 6.25 9.24268Z" fill="#FFD700"/>
</svg>
